<mxfile host="65bd71144e">
    <diagram id="c_uaXeK4coUrQBCGk-ts" name="Page-1">
        <mxGraphModel dx="1054" dy="449" grid="1" gridSize="10" guides="1" tooltips="1" connect="1" arrows="1" fold="1" page="1" pageScale="1" pageWidth="850" pageHeight="1100" math="0" shadow="0">
            <root>
                <mxCell id="0"/>
                <mxCell id="1" parent="0"/>
                <mxCell id="2" value="Property1" style="fontStyle=0;dashed=1;" vertex="1" parent="1">
                    <mxGeometry x="140" y="110" width="140" height="30" as="geometry"/>
                </mxCell>
            </root>
        </mxGraphModel>
    </diagram>
</mxfile>